<svg width="2363" height="459" viewBox="0 0 2363 459" fill="none" xmlns="http://www.w3.org/2000/svg">
<path d="M0 33.8157H129.912C149.511 33.8157 166.514 35.8737 180.888 39.9582C195.263 44.0427 207.2 49.9636 216.667 57.6893C226.134 65.4149 233.195 74.8504 237.818 85.964C242.44 97.0775 244.752 109.648 244.752 123.706C244.752 133.173 243.612 142.197 241.332 150.746C239.053 159.295 235.538 167.179 230.789 174.366C226.039 181.553 220.087 187.949 212.899 193.553C205.712 199.158 197.258 203.812 187.569 207.517L243.137 289.206H179.749L131.685 216.667H130.228L51.8 216.509V289.238H0V33.8157ZM131.21 171.738C141.025 171.738 149.606 170.598 156.951 168.318C164.297 166.039 170.471 162.809 175.411 158.693C180.382 154.545 184.086 149.511 186.524 143.59C188.962 137.637 190.197 131.052 190.197 123.737C190.197 109.458 185.289 98.439 175.474 90.65C165.659 82.861 150.904 78.9665 131.178 78.9665H51.8V171.77H131.21V171.738Z" fill="white"/>
<path d="M272.583 33.8157H490.074V79.2515H324.383V130.228H471.139V172.878H324.383V243.96H493.525V289.206H272.583V33.8157V33.8157Z" fill="white"/>
<path d="M658.93 0H705.823L554 347.085H507.108L658.93 0Z" fill="#8151E8"/>
<path d="M746.541 213.248C755.786 218.472 765.19 223.19 774.72 227.369C784.251 231.549 794.13 235.095 804.388 237.976C814.615 240.857 825.381 243.074 836.652 244.594C847.924 246.113 859.924 246.873 872.684 246.873C888.041 246.873 901.117 245.86 911.914 243.865C922.711 241.871 931.482 239.084 938.289 235.538C945.097 231.992 950.068 227.781 953.171 222.873C956.274 217.965 957.825 212.646 957.825 206.852C957.825 197.606 953.962 190.261 946.237 184.878C938.511 179.495 926.574 176.804 910.458 176.804C903.366 176.804 895.925 177.279 888.072 178.197C880.22 179.115 872.305 180.129 864.294 181.205C856.283 182.282 848.399 183.295 840.61 184.245C832.821 185.163 825.507 185.638 818.636 185.638C807.206 185.638 796.219 184.181 785.707 181.237C775.195 178.292 765.886 173.891 757.749 168.002C749.644 162.113 743.184 154.767 738.372 145.933C733.591 137.099 731.184 126.809 731.184 115.062C731.184 108.096 732.134 101.162 734.034 94.323C735.934 87.4522 739.005 80.8981 743.184 74.6289C747.364 68.3597 752.81 62.5337 759.427 57.1511C766.045 51.7685 774.119 47.1141 783.523 43.1879C792.958 39.2617 803.85 36.1905 816.198 33.9424C828.547 31.6944 842.637 30.5862 858.436 30.5862C869.866 30.5862 881.36 31.2194 892.917 32.4543C904.474 33.7208 915.714 35.4939 926.669 37.7736C937.624 40.0533 948.168 42.8079 958.3 46.0375C968.432 49.2671 977.836 52.8133 986.575 56.7395L963.873 98.5658C956.685 95.3995 948.96 92.4866 940.664 89.8269C932.368 87.1672 923.725 84.8559 914.669 82.8928C905.614 80.9297 896.273 79.3782 886.648 78.2384C877.022 77.0985 867.175 76.5286 857.138 76.5286C842.858 76.5286 831.143 77.5735 821.929 79.6315C812.716 81.6896 805.401 84.3493 799.955 87.5472C794.51 90.7768 790.71 94.3546 788.589 98.3441C786.467 102.334 785.391 106.26 785.391 110.186C785.391 117.817 788.81 124.054 795.681 128.899C802.552 133.743 813 136.181 827.059 136.181C832.726 136.181 839.249 135.769 846.594 134.946C853.94 134.123 861.666 133.236 869.803 132.255C877.909 131.273 886.204 130.387 894.627 129.563C903.081 128.74 911.281 128.329 919.228 128.329C934.268 128.329 947.567 130.007 959.187 133.395C970.807 136.783 980.527 141.595 988.348 147.864C996.2 154.134 1002.12 161.701 1006.14 170.567C1010.16 179.432 1012.19 189.374 1012.19 200.393C1012.19 215.084 1008.77 228.192 1001.96 239.686C995.155 251.179 985.467 260.868 972.865 268.784C960.295 276.668 945.097 282.684 927.366 286.768C909.603 290.853 889.846 292.911 868.062 292.911C853.687 292.911 839.629 291.993 825.887 290.219C812.177 288.415 799.006 285.85 786.435 282.525C773.865 279.201 761.865 275.243 750.499 270.589C739.1 265.966 728.588 260.868 718.868 255.296L746.541 213.248Z" fill="white"/>
<path d="M1114.08 226.008L1002.47 33.8474H1061.14L1139.73 179.115L1217.33 33.8474H1276L1165.88 225.659V289.238H1114.08V226.008Z" fill="white"/>
<path d="M1293.7 213.248C1302.95 218.472 1312.35 223.19 1321.88 227.369C1331.41 231.549 1341.29 235.095 1351.55 237.976C1361.78 240.857 1372.54 243.074 1383.81 244.594C1395.09 246.113 1407.09 246.873 1419.85 246.873C1435.2 246.873 1448.28 245.86 1459.08 243.865C1469.87 241.871 1478.64 239.084 1485.48 235.538C1492.29 231.992 1497.23 227.781 1500.36 222.873C1503.47 217.965 1505.02 212.646 1505.02 206.852C1505.02 197.606 1501.16 190.261 1493.43 184.878C1485.7 179.495 1473.77 176.804 1457.65 176.804C1450.56 176.804 1443.12 177.279 1435.27 178.197C1427.41 179.115 1419.5 180.129 1411.49 181.205C1403.48 182.282 1395.59 183.295 1387.8 184.245C1380.01 185.163 1372.7 185.638 1365.83 185.638C1354.4 185.638 1343.41 184.181 1332.9 181.237C1322.39 178.292 1313.08 173.891 1304.97 168.002C1296.87 162.113 1290.41 154.767 1285.6 145.933C1280.78 137.099 1278.41 126.809 1278.41 115.062C1278.41 108.096 1279.36 101.162 1281.26 94.323C1283.16 87.4839 1286.23 80.8981 1290.41 74.6289C1294.59 68.3597 1300.03 62.5337 1306.65 57.1511C1313.3 51.7685 1321.34 47.1141 1330.75 43.1879C1340.15 39.2617 1351.07 36.1905 1363.42 33.9424C1375.77 31.6944 1389.86 30.5862 1405.66 30.5862C1417.09 30.5862 1428.58 31.2194 1440.14 32.4543C1451.7 33.7208 1462.94 35.4939 1473.89 37.7736C1484.85 40.0533 1495.39 42.8079 1505.52 46.0375C1515.66 49.2671 1525.06 52.8133 1533.8 56.7395L1511.1 98.5658C1503.91 95.3995 1496.18 92.4866 1487.89 89.8269C1479.59 87.1672 1470.95 84.8559 1461.89 82.8928C1452.84 80.9297 1443.53 79.3782 1433.87 78.2384C1424.25 77.0985 1414.4 76.5286 1404.36 76.5286C1390.08 76.5286 1378.37 77.5735 1369.15 79.6315C1359.94 81.6896 1352.63 84.3493 1347.18 87.5472C1341.73 90.7768 1337.93 94.3546 1335.81 98.3441C1333.69 102.334 1332.62 106.26 1332.62 110.186C1332.62 117.817 1336.03 124.054 1342.91 128.899C1349.78 133.743 1360.22 136.181 1374.28 136.181C1379.95 136.181 1386.47 135.769 1393.82 134.946C1401.16 134.123 1408.89 133.236 1417.03 132.255C1425.13 131.273 1433.43 130.387 1441.85 129.563C1450.27 128.74 1458.51 128.329 1466.45 128.329C1481.49 128.329 1494.82 130.007 1506.41 133.395C1518 136.783 1527.72 141.595 1535.57 147.864C1543.42 154.134 1549.35 161.701 1553.37 170.567C1557.39 179.432 1559.41 189.374 1559.41 200.393C1559.41 215.084 1556.03 228.192 1549.22 239.686C1542.41 251.179 1532.72 260.868 1520.12 268.784C1507.55 276.668 1492.35 282.684 1474.62 286.768C1456.86 290.853 1437.1 292.911 1415.32 292.911C1400.94 292.911 1386.88 291.993 1373.17 290.219C1359.43 288.415 1346.29 285.85 1333.72 282.525C1321.15 279.201 1309.15 275.243 1297.75 270.589C1286.36 265.934 1275.84 260.868 1266.12 255.296L1293.7 213.248Z" fill="white"/>
<path d="M1659.94 79.2515H1565.65V33.8157H1806.03V79.2515H1711.74V289.238H1659.94V79.2515Z" fill="white"/>
<path d="M1827.79 33.8157H2045.28V79.2515H1879.59V130.228H2026.34V172.878H1879.59V243.96H2048.73V289.206H1827.79V33.8157Z" fill="white"/>
<path d="M2072.95 33.8157H2124.75L2217.55 126.967L2310.36 33.8157H2362.16V289.238H2310.36V105.563L2217.55 194.947L2124.75 105.563V289.238H2072.95V33.8157Z" fill="white"/>
<path d="M35.6521 378.843H48.3805L77.0351 438.084H64.4017L59.6523 428.11H25.0768L20.4857 438.084H7.82068L35.6521 378.843ZM54.9663 418.199L42.1429 391.286L29.6679 418.199H54.9663Z" fill="white"/>
<path d="M114.777 420.448C116.93 421.651 119.115 422.759 121.299 423.741C123.484 424.722 125.795 425.545 128.17 426.21C130.545 426.875 133.046 427.382 135.643 427.73C138.271 428.078 141.057 428.268 144.001 428.268C147.548 428.268 150.587 428.047 153.089 427.572C155.59 427.097 157.616 426.464 159.2 425.64C160.783 424.817 161.922 423.835 162.651 422.696C163.379 421.556 163.727 420.321 163.727 418.991C163.727 416.838 162.841 415.16 161.036 413.893C159.231 412.627 156.477 412.025 152.74 412.025C151.094 412.025 149.352 412.152 147.548 412.342C145.743 412.564 143.875 412.785 142.038 413.039C140.17 413.292 138.334 413.514 136.529 413.735C134.724 413.957 133.015 414.052 131.431 414.052C128.772 414.052 126.239 413.703 123.801 413.039C121.363 412.342 119.21 411.329 117.31 409.967C115.442 408.606 113.922 406.896 112.814 404.838C111.706 402.78 111.136 400.405 111.136 397.682C111.136 396.067 111.357 394.453 111.801 392.869C112.244 391.286 112.94 389.767 113.922 388.31C114.904 386.854 116.138 385.524 117.69 384.257C119.241 383.022 121.109 381.946 123.262 381.028C125.447 380.109 127.98 379.413 130.83 378.875C133.711 378.368 136.972 378.115 140.614 378.115C143.273 378.115 145.933 378.241 148.624 378.558C151.316 378.875 153.912 379.255 156.445 379.793C158.978 380.331 161.416 380.964 163.791 381.724C166.134 382.453 168.318 383.307 170.345 384.194L165.089 393.883C163.411 393.154 161.638 392.458 159.706 391.856C157.775 391.223 155.78 390.685 153.69 390.241C151.6 389.798 149.416 389.418 147.199 389.165C144.983 388.912 142.672 388.785 140.36 388.785C137.036 388.785 134.313 389.007 132.191 389.513C130.07 389.988 128.36 390.621 127.094 391.35C125.827 392.11 124.941 392.933 124.466 393.851C123.959 394.769 123.737 395.687 123.737 396.606C123.737 398.379 124.529 399.835 126.112 400.943C127.695 402.052 130.133 402.622 133.395 402.622C134.693 402.622 136.212 402.527 137.922 402.337C139.632 402.147 141.437 401.957 143.305 401.703C145.173 401.482 147.104 401.26 149.067 401.07C151.031 400.88 152.93 400.785 154.767 400.785C158.25 400.785 161.353 401.165 164.044 401.957C166.735 402.748 168.983 403.856 170.82 405.313C172.656 406.769 174.018 408.511 174.936 410.569C175.854 412.627 176.329 414.938 176.329 417.503C176.329 420.923 175.537 423.962 173.954 426.622C172.371 429.281 170.123 431.53 167.21 433.366C164.297 435.202 160.783 436.596 156.667 437.545C152.55 438.495 147.959 438.97 142.925 438.97C139.6 438.97 136.339 438.749 133.141 438.337C129.943 437.925 126.904 437.324 123.991 436.564C121.078 435.804 118.291 434.854 115.663 433.809C113.035 432.733 110.566 431.561 108.318 430.263L114.777 420.448Z" fill="white"/>
<path d="M186.144 408.289C186.144 403.825 186.968 399.708 188.614 396.004C190.261 392.299 192.572 389.102 195.517 386.442C198.493 383.782 202.039 381.724 206.219 380.236C210.398 378.748 214.989 378.051 220.023 378.051C225.058 378.051 229.649 378.78 233.828 380.236C238.008 381.692 241.554 383.782 244.53 386.442C247.507 389.102 249.818 392.299 251.433 396.004C253.079 399.708 253.902 403.825 253.902 408.289C253.902 412.785 253.079 416.901 251.433 420.669C249.786 424.437 247.475 427.667 244.53 430.358C241.554 433.049 237.976 435.171 233.828 436.659C229.68 438.147 225.058 438.907 220.023 438.907C214.957 438.907 210.366 438.147 206.219 436.659C202.071 435.171 198.493 433.049 195.517 430.358C192.54 427.667 190.229 424.437 188.614 420.669C186.968 416.901 186.144 412.785 186.144 408.289ZM198.145 408.289C198.145 411.329 198.683 414.083 199.791 416.553C200.899 418.991 202.419 421.081 204.382 422.822C206.345 424.564 208.657 425.893 211.316 426.812C213.976 427.73 216.889 428.205 220.023 428.205C223.158 428.205 226.071 427.73 228.731 426.812C231.39 425.893 233.702 424.564 235.633 422.822C237.564 421.081 239.116 418.991 240.224 416.553C241.332 414.083 241.902 411.36 241.902 408.289C241.902 405.218 241.332 402.495 240.224 400.057C239.116 397.619 237.596 395.592 235.633 393.883C233.67 392.204 231.39 390.906 228.731 390.051C226.071 389.196 223.158 388.722 220.023 388.722C216.889 388.722 213.976 389.165 211.316 390.051C208.657 390.938 206.345 392.204 204.382 393.883C202.419 395.561 200.899 397.619 199.791 400.057C198.714 402.495 198.145 405.218 198.145 408.289Z" fill="white"/>
<path d="M267.232 378.843H320.204V389.386H279.232V404.869H314.03V414.748H279.232V438.052H267.232V378.843Z" fill="white"/>
<path d="M349.682 389.386H327.803V378.843H383.561V389.386H361.682V438.084H349.682V389.386V389.386Z" fill="white"/>
<path d="M388.69 378.843H401.798L417.851 417.091L421.556 426.337L424.469 417.091L430.39 403.16L419.751 378.874H432.099L436.469 390.431L440.522 378.874H452.87L442.231 403.16L448.247 417.408L451.889 426.368L454.707 417.281L470.854 378.906H483.963L457.81 438.147H445.904L440.648 426.4L436.374 415.001L432.099 426.4L426.748 438.147H414.843L388.69 378.843Z" fill="white"/>
<path d="M513.346 378.843H526.074L554.729 438.084H542.095L537.346 428.11H502.739L498.148 438.084H485.483L513.346 378.843ZM532.628 418.199L519.805 391.286L507.33 418.199H532.628Z" fill="white"/>
<path d="M563.942 378.843H594.054C598.613 378.843 602.539 379.318 605.864 380.268C609.188 381.217 611.975 382.579 614.159 384.384C616.344 386.188 617.991 388.373 619.067 390.938C620.144 393.503 620.682 396.447 620.682 399.708C620.682 401.893 620.429 403.983 619.89 405.978C619.352 407.972 618.56 409.777 617.452 411.455C616.344 413.133 614.983 414.621 613.304 415.92C611.626 417.218 609.695 418.294 607.447 419.149L620.334 438.083H605.642L594.497 421.271H594.149L575.943 421.239V438.115H563.942V378.843V378.843ZM594.37 410.822C596.65 410.822 598.645 410.569 600.354 410.03C602.064 409.492 603.489 408.764 604.629 407.782C605.769 406.833 606.624 405.661 607.194 404.268C607.763 402.906 608.048 401.355 608.048 399.677C608.048 396.352 606.909 393.819 604.629 392.014C602.349 390.21 598.93 389.291 594.37 389.291H575.943V410.822H594.37Z" fill="white"/>
<path d="M634.898 378.843H685.337V389.386H646.93V401.197H680.967V411.075H646.93V427.572H686.16V438.052H634.898V378.843Z" fill="white"/>
<path d="M725.232 378.843H737.232V394.294H774.056V378.843H786.119V438.084H774.056V404.584H737.232V438.084H725.232V378.843Z" fill="white"/>
<path d="M799.449 408.289C799.449 403.825 800.272 399.708 801.918 396.004C803.565 392.299 805.876 389.102 808.821 386.442C811.797 383.782 815.343 381.724 819.523 380.236C823.702 378.748 828.293 378.051 833.328 378.051C838.362 378.051 842.953 378.78 847.133 380.236C851.312 381.692 854.858 383.782 857.835 386.442C860.811 389.102 863.122 392.299 864.737 396.004C866.383 399.708 867.207 403.825 867.207 408.289C867.207 412.785 866.383 416.901 864.737 420.669C863.091 424.437 860.779 427.667 857.835 430.358C854.858 433.049 851.28 435.171 847.133 436.659C842.985 438.147 838.362 438.907 833.328 438.907C828.262 438.907 823.671 438.147 819.523 436.659C815.375 435.171 811.797 433.049 808.821 430.358C805.845 427.667 803.533 424.437 801.918 420.669C800.272 416.901 799.449 412.785 799.449 408.289ZM811.48 408.289C811.48 411.329 812.019 414.083 813.127 416.553C814.235 418.991 815.755 421.081 817.718 422.822C819.681 424.564 821.992 425.893 824.652 426.812C827.312 427.73 830.225 428.205 833.359 428.205C836.494 428.205 839.407 427.73 842.067 426.812C844.726 425.893 847.038 424.564 848.969 422.822C850.9 421.081 852.452 418.991 853.56 416.553C854.668 414.083 855.238 411.36 855.238 408.289C855.238 405.218 854.668 402.495 853.56 400.057C852.452 397.619 850.932 395.592 848.969 393.883C847.006 392.204 844.726 390.906 842.067 390.051C839.407 389.196 836.494 388.722 833.359 388.722C830.225 388.722 827.312 389.165 824.652 390.051C821.992 390.938 819.681 392.204 817.718 393.883C815.755 395.561 814.235 397.619 813.127 400.057C812.019 402.495 811.48 405.218 811.48 408.289Z" fill="white"/>
<path d="M878.32 378.843H890.32V411.455C890.32 414.147 890.7 416.521 891.429 418.611C892.157 420.701 893.265 422.442 894.722 423.899C896.178 425.355 897.983 426.432 900.136 427.192C902.289 427.951 904.79 428.3 907.64 428.3C910.458 428.3 912.959 427.92 915.112 427.192C917.265 426.463 919.07 425.355 920.527 423.899C921.983 422.474 923.06 420.701 923.819 418.611C924.548 416.521 924.928 414.147 924.928 411.455V378.843H936.928V412.912C936.928 416.806 936.263 420.352 934.965 423.519C933.666 426.685 931.735 429.44 929.234 431.719C926.732 433.999 923.661 435.74 920.052 436.975C916.442 438.21 912.294 438.843 907.64 438.843C902.986 438.843 898.838 438.21 895.228 436.975C891.587 435.74 888.547 433.967 886.046 431.719C883.545 429.44 881.645 426.717 880.315 423.519C878.985 420.321 878.352 416.806 878.352 412.912V378.843H878.32Z" fill="white"/>
<path d="M954.311 420.448C956.464 421.651 958.648 422.759 960.833 423.741C963.018 424.722 965.329 425.545 967.704 426.21C970.078 426.875 972.58 427.382 975.176 427.73C977.804 428.078 980.59 428.268 983.535 428.268C987.081 428.268 990.121 428.047 992.622 427.572C995.124 427.097 997.15 426.464 998.733 425.64C1000.32 424.817 1001.46 423.835 1002.18 422.696C1002.91 421.556 1003.26 420.321 1003.26 418.991C1003.26 416.838 1002.37 415.16 1000.57 413.893C998.765 412.627 996.01 412.025 992.274 412.025C990.627 412.025 988.886 412.152 987.081 412.342C985.277 412.564 983.408 412.785 981.572 413.039C979.704 413.292 977.867 413.514 976.063 413.735C974.258 413.957 972.548 414.052 970.965 414.052C968.305 414.052 965.772 413.703 963.334 413.039C960.896 412.342 958.743 411.329 956.843 409.967C954.975 408.606 953.456 406.896 952.347 404.838C951.239 402.78 950.669 400.405 950.669 397.682C950.669 396.067 950.891 394.453 951.334 392.869C951.777 391.286 952.474 389.767 953.456 388.31C954.437 386.854 955.672 385.524 957.223 384.257C958.775 383.022 960.643 381.946 962.796 381.028C964.981 380.109 967.514 379.413 970.363 378.875C973.245 378.368 976.506 378.115 980.147 378.115C982.807 378.115 985.467 378.241 988.158 378.558C990.849 378.875 993.445 379.255 995.978 379.793C998.512 380.331 1000.95 380.964 1003.32 381.724C1005.67 382.453 1007.85 383.307 1009.88 384.194L1004.62 393.883C1002.94 393.154 1001.17 392.458 999.24 391.856C997.308 391.223 995.314 390.685 993.224 390.241C991.134 389.798 988.949 389.418 986.733 389.165C984.517 388.912 982.205 388.785 979.894 388.785C976.569 388.785 973.846 389.007 971.725 389.513C969.604 389.988 967.894 390.621 966.627 391.35C965.361 392.11 964.474 392.933 963.999 393.851C963.493 394.769 963.271 395.687 963.271 396.606C963.271 398.379 964.063 399.835 965.646 400.943C967.229 402.052 969.667 402.622 972.928 402.622C974.226 402.622 975.746 402.527 977.456 402.337C979.166 402.147 980.97 401.957 982.839 401.703C984.707 401.482 986.638 401.26 988.601 401.07C990.564 400.88 992.464 400.785 994.3 400.785C997.783 400.785 1000.89 401.165 1003.58 401.957C1006.27 402.748 1008.52 403.856 1010.35 405.313C1012.19 406.769 1013.55 408.511 1014.47 410.569C1015.39 412.627 1015.86 414.938 1015.86 417.503C1015.86 420.923 1015.07 423.962 1013.49 426.622C1011.9 429.281 1009.66 431.53 1006.74 433.366C1003.83 435.202 1000.32 436.596 996.2 437.545C992.084 438.495 987.493 438.97 982.459 438.97C979.134 438.97 975.873 438.749 972.675 438.337C969.477 437.925 966.437 437.324 963.524 436.564C960.611 435.804 957.825 434.854 955.197 433.809C952.569 432.733 950.099 431.561 947.851 430.263L954.311 420.448Z" fill="white"/>
<path d="M1029.13 378.843H1079.57V389.386H1041.13V401.197H1075.17V411.075H1041.13V427.572H1080.36V438.052H1029.13V378.843Z" fill="white"/>
<path d="M1119.49 378.843H1141.21C1147.55 378.843 1153.06 379.539 1157.74 380.901C1162.43 382.262 1166.29 384.225 1169.36 386.758C1172.43 389.291 1174.71 392.394 1176.23 396.004C1177.75 399.613 1178.48 403.698 1178.48 408.226C1178.48 412.532 1177.72 416.49 1176.23 420.162C1174.75 423.804 1172.47 426.97 1169.43 429.63C1166.35 432.289 1162.49 434.379 1157.84 435.867C1153.15 437.355 1147.64 438.115 1141.31 438.115L1119.53 438.083V378.843H1119.49ZM1144.16 427.698C1147.74 427.698 1150.9 427.255 1153.59 426.305C1156.29 425.387 1158.57 424.057 1160.37 422.379C1162.18 420.701 1163.54 418.643 1164.46 416.236C1165.37 413.83 1165.82 411.139 1165.82 408.194C1165.82 405.281 1165.37 402.685 1164.46 400.342C1163.54 397.999 1162.18 396.004 1160.37 394.389C1158.57 392.743 1156.32 391.508 1153.59 390.621C1150.87 389.735 1147.74 389.291 1144.16 389.291H1131.49V427.666H1144.16V427.698Z" fill="white"/>
<path d="M1187.03 408.289C1187.03 403.825 1187.85 399.708 1189.5 396.004C1191.15 392.299 1193.46 389.102 1196.4 386.442C1199.38 383.782 1202.93 381.724 1207.1 380.236C1211.28 378.748 1215.88 378.051 1220.91 378.051C1225.94 378.051 1230.54 378.78 1234.71 380.236C1238.89 381.692 1242.44 383.782 1245.42 386.442C1248.39 389.102 1250.7 392.299 1252.32 396.004C1253.97 399.708 1254.79 403.825 1254.79 408.289C1254.79 412.785 1253.97 416.901 1252.32 420.669C1250.67 424.437 1248.36 427.667 1245.42 430.358C1242.44 433.049 1238.89 435.171 1234.71 436.659C1230.54 438.147 1225.94 438.907 1220.91 438.907C1215.84 438.907 1211.25 438.147 1207.1 436.659C1202.96 435.171 1199.38 433.049 1196.4 430.358C1193.43 427.667 1191.12 424.437 1189.5 420.669C1187.85 416.901 1187.03 412.785 1187.03 408.289ZM1199.03 408.289C1199.03 411.329 1199.57 414.083 1200.68 416.553C1201.79 418.991 1203.31 421.081 1205.27 422.822C1207.23 424.564 1209.54 425.893 1212.2 426.812C1214.86 427.73 1217.77 428.205 1220.91 428.205C1224.04 428.205 1226.96 427.73 1229.62 426.812C1232.28 425.893 1234.59 424.564 1236.52 422.822C1238.45 421.081 1240 418.991 1241.11 416.553C1242.22 414.083 1242.79 411.36 1242.79 408.289C1242.79 405.218 1242.22 402.495 1241.11 400.057C1240 397.619 1238.48 395.592 1236.52 393.883C1234.56 392.204 1232.28 390.906 1229.62 390.051C1226.96 389.196 1224.04 388.722 1220.91 388.722C1217.77 388.722 1214.86 389.165 1212.2 390.051C1209.54 390.938 1207.23 392.204 1205.27 393.883C1203.31 395.561 1201.79 397.619 1200.68 400.057C1199.57 402.495 1199.03 405.218 1199.03 408.289Z" fill="white"/>
<path d="M1293.8 378.843H1305.8L1342.72 398.157V378.843H1354.72V438.084H1342.72V410.917L1305.8 391.698V438.084H1293.8V378.843Z" fill="white"/>
<path d="M1369.98 378.843H1382.07V438.084H1369.98V378.843Z" fill="white"/>
<path d="M1397.3 378.843H1409.3L1446.22 398.157V378.843H1458.22V438.084H1446.22V410.917L1409.3 391.698V438.084H1397.3V378.843Z" fill="white"/>
<path d="M1463.57 447.867C1465.31 446.822 1466.8 445.683 1468.07 444.543C1469.33 443.371 1470.35 442.105 1471.17 440.712C1471.96 439.318 1472.56 437.735 1472.94 436.025C1473.32 434.284 1473.51 432.321 1473.51 430.136V378.843H1485.51V427.951C1485.51 430.579 1485.39 432.986 1485.17 435.139C1484.94 437.292 1484.56 439.287 1484.06 441.091C1483.55 442.896 1482.85 444.574 1481.97 446.062C1481.08 447.551 1480.04 449.007 1478.74 450.4C1477.47 451.762 1475.95 453.092 1474.24 454.326C1472.53 455.561 1470.51 456.859 1468.23 458.158L1463.57 447.867Z" fill="white"/>
<path d="M1521.07 378.843H1533.8L1562.45 438.084H1549.82L1545.07 428.11H1510.46L1505.87 438.084H1493.21L1521.07 378.843ZM1540.35 418.199L1527.56 391.286L1515.09 418.199H1540.35Z" fill="white"/>
<path d="M1597.41 378.843H1609.41V394.294H1646.23V378.843H1658.3V438.084H1646.23V404.584H1609.41V438.084H1597.41V378.843Z" fill="white"/>
<path d="M1695.31 378.843H1708.04L1736.69 438.084H1724.09L1719.34 428.11H1684.74L1680.14 438.084H1667.48L1695.31 378.843ZM1714.62 418.199L1701.8 391.286L1689.33 418.199H1714.62Z" fill="white"/>
<path d="M1742.33 408.099C1742.33 403.888 1743.12 399.962 1744.7 396.289C1746.29 392.648 1748.6 389.481 1751.61 386.79C1754.61 384.099 1758.32 381.977 1762.66 380.458C1767.03 378.906 1771.96 378.146 1777.44 378.146C1782.29 378.146 1786.69 378.621 1790.74 379.603C1794.76 380.584 1798.53 382.072 1801.98 384.067L1796.44 393.154C1795.4 392.489 1794.22 391.856 1792.86 391.35C1791.5 390.811 1790.08 390.368 1788.56 390.02C1787.04 389.64 1785.45 389.355 1783.81 389.165C1782.16 388.975 1780.58 388.848 1778.96 388.848C1775.13 388.848 1771.71 389.323 1768.7 390.273C1765.7 391.223 1763.16 392.553 1761.1 394.263C1759.05 395.972 1757.5 397.999 1756.42 400.373C1755.34 402.748 1754.8 405.344 1754.8 408.162C1754.8 411.107 1755.37 413.798 1756.48 416.236C1757.59 418.706 1759.21 420.796 1761.33 422.601C1763.45 424.405 1766.01 425.767 1769.05 426.78C1772.09 427.762 1775.54 428.268 1779.37 428.268C1781.12 428.268 1782.86 428.141 1784.57 427.888C1786.28 427.635 1787.95 427.287 1789.54 426.843C1791.15 426.4 1792.7 425.862 1794.19 425.26C1795.68 424.659 1797.07 423.962 1798.37 423.234L1803.91 432.321C1800.68 434.379 1796.95 436.025 1792.7 437.197C1788.46 438.369 1783.93 438.97 1779.18 438.97C1773.1 438.97 1767.75 438.179 1763.16 436.595C1758.57 435.012 1754.71 432.828 1751.64 430.073C1748.57 427.318 1746.22 424.057 1744.67 420.289C1743.09 416.458 1742.33 412.405 1742.33 408.099Z" fill="white"/>
<path d="M1817.12 378.843H1829.12V409.492L1860.4 378.843H1875.79L1846.59 407.117L1875.79 438.084H1859.8L1837.98 415.508L1829.15 424.025V438.084H1817.15V378.843H1817.12Z" fill="white"/>
<path d="M1881.71 378.843H1932.15V389.386H1893.71V401.197H1927.75V411.075H1893.71V427.572H1932.94V438.052H1881.71V378.843Z" fill="white"/>
<path d="M1946.27 378.843H1976.41C1980.97 378.843 1984.9 379.318 1988.22 380.268C1991.55 381.217 1994.33 382.579 1996.52 384.384C1998.7 386.188 2000.35 388.373 2001.42 390.938C2002.5 393.503 2003.04 396.447 2003.04 399.708C2003.04 401.893 2002.79 403.983 2002.25 405.978C2001.71 407.972 2000.92 409.777 1999.81 411.455C1998.7 413.133 1997.34 414.621 1995.66 415.92C1993.98 417.218 1992.05 418.294 1989.77 419.149L2002.66 438.083H1987.97L1976.82 421.271H1976.47L1958.3 421.239V438.115H1946.3V378.843H1946.27ZM1976.7 410.822C1978.98 410.822 1980.97 410.569 1982.65 410.03C1984.36 409.492 1985.78 408.764 1986.92 407.782C1988.06 406.833 1988.92 405.661 1989.49 404.268C1990.06 402.906 1990.34 401.355 1990.34 399.677C1990.34 396.352 1989.2 393.819 1986.92 392.014C1984.64 390.21 1981.22 389.291 1976.66 389.291H1958.24V410.822H1976.7Z" fill="white"/>
<path d="M2020.01 420.448C2022.16 421.651 2024.35 422.759 2026.53 423.741C2028.75 424.722 2031.03 425.545 2033.4 426.21C2035.78 426.875 2038.28 427.382 2040.91 427.73C2043.5 428.078 2046.32 428.268 2049.27 428.268C2052.81 428.268 2055.85 428.047 2058.35 427.572C2060.85 427.097 2062.88 426.464 2064.46 425.64C2066.05 424.817 2067.19 423.835 2067.92 422.696C2068.64 421.556 2068.99 420.321 2068.99 418.991C2068.99 416.838 2068.11 415.16 2066.3 413.893C2064.5 412.627 2061.74 412.025 2058.01 412.025C2056.36 412.025 2054.65 412.152 2052.81 412.342C2051.01 412.564 2049.14 412.785 2047.3 413.039C2045.47 413.292 2043.63 413.514 2041.83 413.735C2040.02 413.957 2038.31 414.052 2036.73 414.052C2034.07 414.052 2031.54 413.703 2029.1 413.039C2026.66 412.342 2024.51 411.329 2022.61 409.967C2020.71 408.606 2019.22 406.896 2018.11 404.838C2017 402.78 2016.43 400.405 2016.43 397.682C2016.43 396.067 2016.65 394.453 2017.1 392.869C2017.54 391.286 2018.24 389.767 2019.22 388.31C2020.2 386.854 2021.47 385.524 2022.99 384.257C2024.54 383.022 2026.41 381.946 2028.59 381.028C2030.78 380.109 2033.31 379.413 2036.16 378.875C2039.01 378.368 2042.3 378.115 2045.94 378.115C2048.6 378.115 2051.26 378.241 2053.95 378.558C2056.64 378.875 2059.24 379.255 2061.77 379.793C2064.31 380.331 2066.74 380.964 2069.12 381.724C2071.46 382.453 2073.65 383.307 2075.67 384.194L2070.42 393.883C2068.74 393.154 2066.97 392.458 2065.03 391.856C2063.1 391.255 2061.11 390.685 2059.02 390.241C2056.93 389.798 2054.74 389.418 2052.53 389.165C2050.28 388.912 2048 388.785 2045.69 388.785C2042.36 388.785 2039.64 389.007 2037.52 389.513C2035.4 390.02 2033.69 390.621 2032.42 391.35C2031.16 392.11 2030.27 392.933 2029.79 393.851C2029.32 394.769 2029.07 395.687 2029.07 396.606C2029.07 398.379 2029.86 399.835 2031.47 400.943C2033.06 402.052 2035.49 402.622 2038.75 402.622C2040.05 402.622 2041.57 402.527 2043.28 402.337C2044.99 402.147 2046.8 401.957 2048.66 401.703C2050.53 401.482 2052.46 401.26 2054.43 401.07C2056.39 400.88 2058.29 400.785 2060.13 400.785C2063.61 400.785 2066.71 401.165 2069.4 401.957C2072.1 402.748 2074.34 403.856 2076.15 405.313C2077.98 406.769 2079.35 408.511 2080.26 410.569C2081.18 412.627 2081.66 414.938 2081.66 417.503C2081.66 420.923 2080.87 423.962 2079.28 426.622C2077.7 429.281 2075.45 431.53 2072.54 433.366C2069.63 435.202 2066.11 436.596 2061.99 437.545C2057.88 438.495 2053.29 438.97 2048.22 438.97C2044.9 438.97 2041.64 438.749 2038.44 438.337C2035.24 437.925 2032.2 437.324 2029.29 436.564C2026.37 435.804 2023.59 434.854 2020.96 433.809C2018.33 432.733 2015.86 431.561 2013.61 430.263L2020.01 420.448Z" fill="white"/>
<path d="M2094.86 378.843H2126.08C2130.64 378.843 2134.57 379.349 2137.89 380.331C2141.21 381.312 2144 382.737 2146.19 384.605C2148.37 386.473 2150.02 388.722 2151.09 391.413C2152.17 394.104 2152.71 397.112 2152.71 400.468C2152.71 403.635 2152.17 406.548 2151.12 409.239C2150.08 411.93 2148.43 414.242 2146.25 416.205C2144.06 418.168 2141.31 419.688 2137.95 420.796C2134.63 421.904 2130.67 422.442 2126.14 422.442L2106.86 422.41V438.147H2094.86V378.843ZM2126.4 411.962C2128.68 411.962 2130.67 411.677 2132.35 411.139C2134.06 410.6 2135.48 409.84 2136.62 408.827C2137.76 407.814 2138.62 406.611 2139.19 405.186C2139.76 403.761 2140.04 402.178 2140.04 400.437C2140.04 396.922 2138.9 394.199 2136.62 392.236C2134.34 390.273 2130.92 389.291 2126.36 389.291H2106.86V411.962H2126.4Z" fill="white"/>
<path d="M2186.05 378.843H2198.78L2227.43 438.084H2214.8L2210.05 428.11H2175.44L2170.85 438.084H2158.19L2186.05 378.843ZM2205.33 418.199L2192.54 391.286L2180.06 418.199H2205.33Z" fill="white"/>
<path d="M2233.04 408.099C2233.04 403.888 2233.83 399.962 2235.41 396.289C2236.99 392.648 2239.31 389.481 2242.31 386.79C2245.32 384.099 2249.03 381.977 2253.36 380.458C2257.73 378.906 2262.67 378.146 2268.15 378.146C2272.99 378.146 2277.4 378.621 2281.45 379.603C2285.47 380.584 2289.24 382.072 2292.69 384.067L2287.15 393.154C2286.1 392.489 2284.93 391.856 2283.57 391.35C2282.21 390.811 2280.78 390.368 2279.26 390.02C2277.74 389.64 2276.16 389.355 2274.51 389.165C2272.87 388.975 2271.28 388.848 2269.67 388.848C2265.84 388.848 2262.42 389.323 2259.41 390.273C2256.4 391.223 2253.87 392.553 2251.81 394.263C2249.75 395.972 2248.2 397.999 2247.13 400.373C2246.05 402.748 2245.51 405.344 2245.51 408.162C2245.51 411.107 2246.08 413.798 2247.19 416.236C2248.3 418.706 2249.91 420.796 2252.03 422.601C2254.16 424.405 2256.72 425.767 2259.76 426.78C2262.8 427.762 2266.25 428.268 2270.08 428.268C2271.82 428.268 2273.56 428.141 2275.27 427.888C2276.98 427.635 2278.66 427.287 2280.25 426.843C2281.86 426.4 2283.41 425.862 2284.9 425.26C2286.39 424.659 2287.78 423.962 2289.08 423.234L2294.62 432.321C2291.39 434.379 2287.65 436.025 2283.41 437.197C2279.17 438.369 2274.64 438.97 2269.89 438.97C2263.81 438.97 2258.46 438.179 2253.87 436.595C2249.28 435.012 2245.42 432.828 2242.34 430.073C2239.27 427.318 2236.93 424.057 2235.38 420.289C2233.8 416.458 2233.04 412.405 2233.04 408.099Z" fill="white"/>
<path d="M2307.82 378.843H2358.26V389.386H2319.82V401.197H2353.86V411.075H2319.82V427.572H2359.05V438.052H2307.82V378.843Z" fill="white"/>
</svg>
